<svg xmlns="http://www.w3.org/2000/svg" width="48" height="48" viewBox="0 0 48 48" fill="none"><g id="Icon" clip-path="url(#clip0_893_350)"><path id="Vector" d="M22.5938 14.1562H25.4062C26.183 14.1562 26.8125 13.5267 26.8125 12.75C26.8125 11.9733 26.183 11.3438 25.4062 11.3438H22.5938C21.817 11.3438 21.1875 11.9733 21.1875 12.75C21.1875 13.5267 21.817 14.1562 22.5938 14.1562Z" fill="#003AAA"></path><path id="Vector_2" d="M22.5938 19.7812H25.4062C26.183 19.7812 26.8125 19.1517 26.8125 18.375C26.8125 17.5983 26.183 16.9688 25.4062 16.9688H22.5938C21.817 16.9688 21.1875 17.5983 21.1875 18.375C21.1875 19.1517 21.817 19.7812 22.5938 19.7812Z" fill="#003AAA"></path><path id="Vector_3" d="M25.4062 22.5938H22.5938C21.817 22.5938 21.1875 23.2233 21.1875 24C21.1875 24.7767 21.817 25.4062 22.5938 25.4062H25.4062C26.183 25.4062 26.8125 24.7767 26.8125 24C26.8125 23.2233 26.183 22.5938 25.4062 22.5938Z" fill="#003AAA"></path><path id="Vector_4" d="M36.6562 14.1562H39.4688C40.2455 14.1562 40.875 13.5267 40.875 12.75C40.875 11.9733 40.2455 11.3438 39.4688 11.3438H36.6562C35.8795 11.3438 35.25 11.9733 35.25 12.75C35.25 13.5267 35.8795 14.1562 36.6562 14.1562Z" fill="#003AAA"></path><path id="Vector_5" d="M36.6562 19.7812H39.4688C40.2455 19.7812 40.875 19.1517 40.875 18.375C40.875 17.5983 40.2455 16.9688 39.4688 16.9688H36.6562C35.8795 16.9688 35.25 17.5983 35.25 18.375C35.25 19.1517 35.8795 19.7812 36.6562 19.7812Z" fill="#003AAA"></path><path id="Vector_6" d="M39.4688 22.5938H36.6562C35.8795 22.5938 35.25 23.2233 35.25 24C35.25 24.7767 35.8795 25.4062 36.6562 25.4062H39.4688C40.2455 25.4062 40.875 24.7767 40.875 24C40.875 23.2233 40.2455 22.5938 39.4688 22.5938Z" fill="#003AAA"></path><path id="Vector_7" d="M8.53125 14.1562H11.3438C12.1205 14.1562 12.75 13.5267 12.75 12.75C12.75 11.9733 12.1205 11.3438 11.3438 11.3438H8.53125C7.75452 11.3438 7.125 11.9733 7.125 12.75C7.125 13.5267 7.75452 14.1562 8.53125 14.1562Z" fill="#003AAA"></path><path id="Vector_8" d="M5.71875 48H42.2812C44.6074 48 46.5 46.1074 46.5 43.7812C46.5 42.7452 46.5 5.32983 46.5 4.21875C46.5 1.89258 44.6074 0 42.2812 0H33.8438C32.7642 0 31.7783 0.407959 31.0312 1.07776C30.2842 0.407959 29.2983 0 28.2188 0H19.7812C18.7017 0 17.7158 0.407959 16.9688 1.07776C16.2217 0.407959 15.2358 0 14.1562 0H5.71875C3.39258 0 1.5 1.89258 1.5 4.21875V43.7812C1.5 46.1074 3.39258 48 5.71875 48ZM43.6875 33.5347L32.4375 31.2847V8.4375H43.6875V33.5347ZM29.625 30.7222L18.375 28.4722C18.375 27.8954 18.375 8.99451 18.375 8.4375H29.625V30.7222ZM15.5625 19.4722L4.3125 17.2222V8.4375H15.5625V19.4722ZM43.6875 43.7812C43.6875 44.5565 43.0565 45.1875 42.2812 45.1875H5.71875C4.94348 45.1875 4.3125 44.5565 4.3125 43.7812V20.0903L15.5625 22.3403V29.625C15.5625 30.2952 16.0356 30.8723 16.693 31.0042C18.152 31.2957 42.3062 36.1267 43.6875 36.4028V43.7812ZM33.8438 2.8125H42.2812C43.0565 2.8125 43.6875 3.44348 43.6875 4.21875V5.625H32.4375V4.21875C32.4375 3.44348 33.0685 2.8125 33.8438 2.8125ZM19.7812 2.8125H28.2188C28.994 2.8125 29.625 3.44348 29.625 4.21875V5.625H18.375V4.21875C18.375 3.44348 19.006 2.8125 19.7812 2.8125ZM5.71875 2.8125H14.1562C14.9315 2.8125 15.5625 3.44348 15.5625 4.21875V5.625H4.3125V4.21875C4.3125 3.44348 4.94348 2.8125 5.71875 2.8125Z" fill="#003AAA"></path><path id="Vector_9" d="M16.9688 33.8438H8.53125C7.75452 33.8438 7.125 34.4733 7.125 35.25V40.9688C7.125 41.7455 7.75452 42.375 8.53125 42.375H16.9688C17.7455 42.375 18.375 41.7455 18.375 40.9688V35.25C18.375 34.4733 17.7455 33.8438 16.9688 33.8438ZM15.5625 39.5625H9.9375V36.6562H15.5625V39.5625Z" fill="#003AAA"></path></g><defs><clipPath id="clip0_893_350"><rect width="48" height="48" fill="white"></rect></clipPath></defs></svg>