<svg xmlns="http://www.w3.org/2000/svg" width="39" height="31" viewBox="0 0 39 31" fill="none"><path id="Vector" d="M32.3361 25.9245C32.3361 26.3801 32.0288 26.708 31.5864 26.708C31.1308 26.708 30.8367 26.3596 30.8367 25.9245C30.8367 25.4894 31.1308 25.1411 31.5864 25.1411C32.0288 25.1411 32.3361 25.4894 32.3361 25.9245ZM11.5241 25.1411C11.048 25.1411 10.7744 25.4894 10.7744 25.9245C10.7744 26.3596 11.0492 26.708 11.5241 26.708C11.9592 26.708 12.2533 26.3801 12.2533 25.9245C12.2461 25.4894 11.9592 25.1411 11.5241 25.1411ZM19.3924 25.1218C19.0308 25.1218 18.809 25.3556 18.756 25.7039H20.0348C19.9745 25.3219 19.7407 25.1218 19.3924 25.1218ZM26.6109 25.1411C26.1553 25.1411 25.8817 25.4894 25.8817 25.9245C25.8817 26.3596 26.1565 26.708 26.6109 26.708C27.0665 26.708 27.3606 26.3801 27.3606 25.9245C27.3606 25.4894 27.0653 25.1411 26.6109 25.1411ZM33.7017 26.8888C33.7017 26.9093 33.7222 26.9225 33.7222 26.9623C33.7222 26.9828 33.7017 26.996 33.7017 27.0358C33.6812 27.0563 33.6812 27.0696 33.668 27.0888C33.6475 27.1093 33.6342 27.1226 33.5944 27.1226C33.574 27.1431 33.5607 27.1431 33.5209 27.1431C33.5004 27.1431 33.4872 27.1431 33.4474 27.1226C33.4269 27.1226 33.4137 27.1021 33.3944 27.0888C33.3739 27.0684 33.3606 27.0551 33.3606 27.0358C33.3401 27.0021 33.3401 26.9828 33.3401 26.9623C33.3401 26.9285 33.3401 26.9093 33.3606 26.8888C33.3606 26.855 33.3811 26.8357 33.3944 26.8152C33.4149 26.7947 33.4281 26.7947 33.4474 26.7815C33.4811 26.761 33.5004 26.761 33.5209 26.761C33.5547 26.761 33.574 26.761 33.5944 26.7815C33.6282 26.8008 33.6475 26.8008 33.668 26.8152C33.6885 26.8297 33.6812 26.855 33.7017 26.8888ZM33.5547 26.9828C33.5884 26.9828 33.5884 26.9623 33.6077 26.9623C33.6282 26.9418 33.6282 26.9285 33.6282 26.9093C33.6282 26.89 33.6282 26.8755 33.6077 26.8562C33.5884 26.8562 33.574 26.8357 33.5342 26.8357H33.4269V27.0696H33.4799V26.9755H33.5004L33.574 27.0696H33.627L33.5547 26.9828ZM38.5699 3.8747V27.4456C38.5696 28.2981 38.2308 29.1155 37.6281 29.7183C37.0253 30.3211 36.2078 30.6598 35.3554 30.6602H3.21357C2.36112 30.6598 1.54367 30.3211 0.940894 29.7183C0.33812 29.1155 -0.000657113 28.2981 -0.000976562 27.4456V3.8747C-0.000657113 3.02225 0.33812 2.2048 0.940894 1.60203C1.54367 0.999252 2.36112 0.660476 3.21357 0.660156H35.3554C36.2078 0.660476 37.0253 0.999252 37.6281 1.60203C38.2308 2.2048 38.5696 3.02225 38.5699 3.8747ZM4.28629 13.2218C4.28629 18.3444 8.44458 22.4954 13.5599 22.4954C15.3816 22.4902 17.1621 21.9527 18.6824 20.949C13.801 16.9788 13.8347 9.48539 18.6824 5.51391C17.1636 4.50704 15.3821 3.96925 13.5599 3.96751C8.44458 3.96148 4.28629 8.11857 4.28629 13.2218ZM19.2851 20.5079C24.0063 16.8245 23.9858 9.6469 19.2851 5.94421C14.5844 9.6469 14.5639 16.8317 19.2851 20.5079ZM9.75595 25.6172C9.75595 25.035 9.37387 24.6529 8.77122 24.6324C8.46266 24.6324 8.13482 24.7264 7.91425 25.0675C7.75395 24.7927 7.47914 24.6324 7.09706 24.6324C6.95822 24.6303 6.82096 24.6621 6.69723 24.7252C6.5735 24.7882 6.46705 24.8805 6.38713 24.994V24.6999H5.83872V27.1575H6.38713C6.38713 25.892 6.21959 25.135 6.98978 25.135C7.67319 25.135 7.5394 25.8185 7.5394 27.1575H8.06853C8.06853 25.9317 7.90099 25.135 8.67118 25.135C9.35459 25.135 9.21959 25.8052 9.21959 27.1575H9.76921V25.6172H9.75595ZM12.7632 24.6999H12.2341V24.994C12.1404 24.8772 12.0209 24.7837 11.8849 24.721C11.749 24.6582 11.6003 24.6279 11.4506 24.6324C10.7612 24.6324 10.2321 25.1821 10.2321 25.9245C10.2321 26.6742 10.7612 27.2166 11.4506 27.2166C11.7989 27.2166 12.0533 27.0888 12.2341 26.855V27.1636H12.7632V24.6999ZM15.4751 26.4139C15.4751 25.4099 13.942 25.8643 13.942 25.3954C13.942 25.0133 14.7387 25.0748 15.181 25.3219L15.4016 24.8868C14.7724 24.4782 13.3791 24.4854 13.3791 25.4364C13.3791 26.3934 14.9122 25.992 14.9122 26.4404C14.9122 26.8622 14.0083 26.8285 13.5261 26.4934L13.2923 26.9153C14.042 27.4239 15.4751 27.3166 15.4751 26.4127V26.4139ZM17.846 27.0358L17.6989 26.5802C17.4446 26.72 16.8817 26.8743 16.8817 26.3054V25.1941H17.7592V24.6987H16.8817V23.949H16.3321V24.6987H15.8235V25.1881H16.3321V26.3066C16.3321 27.4854 17.4904 27.2708 17.846 27.0358ZM18.7355 26.1391H20.5772C20.5772 25.0543 20.0818 24.6252 19.4116 24.6252C18.7017 24.6252 18.1931 25.1543 18.1931 25.9173C18.1931 27.2901 19.7069 27.5179 20.4566 26.8683L20.2023 26.4669C19.6804 26.896 18.8897 26.855 18.7355 26.1391ZM22.6937 24.6999C22.3863 24.5661 21.9175 24.5794 21.6764 24.994V24.6999H21.1268V27.1575H21.6764V25.7714C21.6764 24.994 22.3128 25.0953 22.5334 25.2086L22.6937 24.6999ZM23.4036 25.9245C23.4036 25.1604 24.181 24.9133 24.7897 25.3616L25.044 24.9265C24.2666 24.3178 22.854 24.6517 22.854 25.9305C22.854 27.2564 24.3534 27.524 25.044 26.9346L24.7897 26.4994C24.1738 26.9346 23.4036 26.6742 23.4036 25.9233V25.9245ZM27.8693 24.6999H27.3196V24.994C26.764 24.2576 25.3176 24.6734 25.3176 25.9245C25.3176 27.2106 26.817 27.5782 27.3196 26.855V27.1636H27.8693V24.6999ZM30.1256 24.6999C29.9653 24.6192 29.3891 24.5059 29.1083 24.994V24.6999H28.5792V27.1575H29.1083V25.7714C29.1083 25.035 29.711 25.082 29.9653 25.2086L30.1256 24.6999ZM32.8243 23.7019H32.2951V24.994C31.7455 24.2648 30.2931 24.6529 30.2931 25.9245C30.2931 27.2238 31.7997 27.571 32.2951 26.855V27.1636H32.8243V23.7019ZM33.3341 18.6734V18.982H33.3871V18.6734H33.5137V18.6204H33.2051V18.6734H33.3341ZM33.7752 26.9623C33.7752 26.9285 33.7752 26.8888 33.756 26.855C33.7355 26.8345 33.7222 26.802 33.7029 26.7815C33.6836 26.761 33.6499 26.7477 33.6294 26.7285C33.5956 26.7285 33.5559 26.708 33.5221 26.708C33.5016 26.708 33.4691 26.7285 33.4281 26.7285C33.4017 26.7433 33.377 26.7611 33.3546 26.7815C33.3208 26.8008 33.3016 26.8345 33.3016 26.855C33.2811 26.8888 33.2811 26.9285 33.2811 26.9623C33.2811 26.9828 33.2811 27.0153 33.3016 27.0563C33.3016 27.0768 33.322 27.1093 33.3546 27.1298C33.3749 27.1526 33.4 27.1707 33.4281 27.1829C33.4619 27.2021 33.5016 27.2021 33.5221 27.2021C33.5559 27.2021 33.5956 27.2021 33.6294 27.1829C33.6499 27.1624 33.6824 27.1491 33.7029 27.1298C33.7234 27.1105 33.7367 27.0768 33.756 27.0563C33.7752 27.0165 33.7752 26.9828 33.7752 26.9623ZM33.9898 18.6131H33.8958L33.7885 18.847L33.6812 18.6131H33.5872V18.9747H33.6402V18.6999L33.7475 18.9338H33.821L33.9151 18.6999V18.9747H33.9886L33.9898 18.6131ZM34.2839 13.2218C34.2839 8.11857 30.1256 3.96148 25.0103 3.96148C23.1884 3.96605 21.4078 4.5036 19.8877 5.50789C24.7162 9.47936 24.7897 16.992 19.8877 20.943C21.4074 21.9481 23.1883 22.4858 25.0103 22.4894C30.1256 22.4966 34.2839 18.3444 34.2839 13.2218Z" fill="black"></path></svg>