<svg xmlns="http://www.w3.org/2000/svg" width="47" height="31" viewBox="0 0 47 31" fill="none"><path id="Vector" d="M4.33867 0.662469C4.04319 0.66283 3.74771 0.664783 3.45225 0.668327C3.15938 0.678089 2.86065 0.693709 2.56974 0.746425C2.13008 0.815905 1.7132 0.988778 1.3534 1.25082C0.993595 1.51287 0.70115 1.8566 0.500123 2.25373C0.36345 2.52317 0.277542 2.79651 0.226778 3.09329C0.172109 3.38225 0.154536 3.67903 0.148679 3.9719C0.144682 4.10789 0.142079 4.24392 0.140869 4.37996L0.140869 26.9446C0.140869 27.0813 0.144774 27.2141 0.146727 27.3488C0.154536 27.6416 0.172109 27.9404 0.224825 28.2313C0.277542 28.5242 0.365403 28.7995 0.502075 29.0689C0.77131 29.599 1.20207 30.0297 1.73213 30.299C2.00157 30.4356 2.27491 30.5235 2.57169 30.5762C2.86065 30.6289 3.15743 30.6465 3.4503 30.6543L3.85641 30.6602H43.2845L43.6887 30.6543C43.9815 30.6465 44.2803 30.6289 44.5712 30.5762C44.8641 30.5235 45.1394 30.4376 45.4068 30.3009C45.9383 30.0319 46.3699 29.6003 46.6388 29.0689C46.7755 28.7995 46.8634 28.5261 46.9141 28.2293C46.9669 27.9404 46.9844 27.6436 46.9922 27.3507C46.9961 27.2141 46.9981 27.0813 46.9981 26.9446L47.0001 26.4643V4.37801C47.0001 4.24134 46.9961 4.10857 46.9922 3.97385C46.9886 3.67813 46.9625 3.38311 46.9141 3.09134C46.8207 2.50337 46.5438 1.95998 46.123 1.53883C45.7022 1.11768 45.1591 0.840333 44.5712 0.746425C44.2794 0.698313 43.9844 0.672206 43.6887 0.668327C43.3939 0.659982 43.099 0.658029 42.8042 0.662469H4.33867ZM4.33867 1.66213H43.2747C43.4036 1.66213 43.5305 1.66604 43.6594 1.66799C43.8839 1.6758 44.1475 1.68751 44.3916 1.73047C44.6044 1.76952 44.7821 1.82809 44.9519 1.914C45.2944 2.08786 45.5727 2.36616 45.7466 2.70865C45.836 2.88565 45.8979 3.07527 45.9301 3.27096C45.9731 3.51112 45.9848 3.7747 45.9906 4.00119C45.9945 4.1281 45.9965 4.25501 45.9965 4.38582V26.9407C45.9965 27.0676 45.9965 27.1945 45.9906 27.3234C45.9848 27.5479 45.9731 27.8115 45.9282 28.0556C45.8859 28.3429 45.7752 28.6158 45.6052 28.8513C45.4353 29.0868 45.2113 29.278 44.9519 29.4086C44.7761 29.4976 44.5878 29.5595 44.3935 29.5922C44.1526 29.6305 43.9092 29.6514 43.6652 29.6546L43.2747 29.6605H3.86227C3.73341 29.6605 3.60259 29.6566 3.47959 29.6546C3.23434 29.6515 2.98965 29.6306 2.74741 29.5922C2.53459 29.5531 2.35692 29.4945 2.1851 29.4086C1.8426 29.2354 1.56474 28.9569 1.3924 28.614C1.30319 28.4369 1.24131 28.2473 1.20887 28.0517C1.17009 27.8108 1.14921 27.5674 1.14639 27.3234C1.14377 27.1952 1.14247 27.067 1.14248 26.9388V4.38387C1.14248 4.25696 1.14248 4.1281 1.14639 3.99923C1.1542 3.77665 1.16591 3.51502 1.20887 3.26706C1.24792 3.05619 1.30649 2.87852 1.3924 2.7067C1.56637 2.36477 1.8447 2.08713 2.18705 1.914C2.36381 1.82562 2.55262 1.76378 2.74741 1.73047C2.99147 1.68751 3.25505 1.67385 3.47959 1.66799C3.6065 1.66408 3.73536 1.66408 3.86227 1.66213H4.33867ZM13.5348 8.88626C12.949 8.91749 12.2305 9.2748 11.8166 9.77658C11.4437 10.2061 11.1137 10.909 11.1996 11.5689C11.8596 11.6275 12.5176 11.239 12.9334 10.7528C13.3337 10.2491 13.607 9.57548 13.5348 8.88821V8.88626ZM17.8439 9.70629V20.4312H19.5074V16.7664H21.8113C23.916 16.7664 25.3941 15.3235 25.3941 13.2285C25.3941 11.1394 23.9453 9.70434 21.864 9.70434L17.8439 9.70629ZM19.5074 11.1101H21.4247C22.8676 11.1101 23.6915 11.8833 23.6915 13.2364C23.6915 14.5875 22.8676 15.3684 21.4188 15.3684H19.5074V11.1101ZM13.3493 11.6959C12.4707 11.7154 11.7288 12.2425 11.2992 12.2425C10.8404 12.2425 10.1414 11.7271 9.38384 11.7408C8.89106 11.7531 8.41008 11.8942 7.98876 12.15C7.56743 12.4059 7.22044 12.7677 6.98231 13.1993C5.95336 14.9721 6.71092 17.6021 7.71253 19.0469C8.1987 19.7615 8.78444 20.5483 9.55566 20.519C10.2839 20.4917 10.5709 20.0466 11.4554 20.0466C12.3418 20.0466 12.5996 20.519 13.3688 20.5054C14.1693 20.4917 14.6711 19.7908 15.1553 19.0742C15.7137 18.26 15.9422 17.4732 15.9558 17.4322C15.9422 17.4166 14.4134 16.8308 14.3997 15.0717C14.3841 13.5995 15.6005 12.8986 15.6571 12.8556C14.9698 11.8403 13.8999 11.7271 13.5289 11.6978C13.4691 11.6941 13.4092 11.6947 13.3493 11.6959ZM29.3673 12.471C27.4344 12.471 26.2317 13.5116 26.1419 14.9233H27.6589C27.7995 14.2243 28.3794 13.7791 29.3088 13.7791C30.2889 13.7791 30.8766 14.2985 30.8766 15.1673V15.7707L28.7347 15.8956C26.8779 16.001 25.8295 16.8406 25.8295 18.2073C25.8295 19.6131 26.8994 20.564 28.4301 20.564C29.4571 20.564 30.4451 20.0153 30.8981 19.1445H30.9352V20.4312H32.4737V15.0424C32.4737 13.4746 31.2632 12.471 29.3673 12.471ZM33.1551 12.6116L35.9784 20.439C35.9784 20.4449 35.8359 20.9076 35.8359 20.9213C35.5918 21.7218 35.1915 22.0361 34.4476 22.0361C34.3129 22.0361 34.0454 22.0361 33.9263 22.0068V23.3072C34.0435 23.3286 34.4477 23.3443 34.5804 23.3443C36.201 23.3443 36.9741 22.7351 37.6419 20.8393L40.5706 12.6116H38.8758L36.8999 18.9746H36.8707L34.8928 12.6096L33.1551 12.6116ZM30.8766 16.8855V17.5025C30.8766 18.5197 29.998 19.2929 28.8773 19.2929C28.0143 19.2929 27.45 18.8477 27.45 18.1624C27.45 17.4947 27.9928 17.069 28.9515 17.0046L30.8766 16.8855Z" fill="black"></path></svg>