<svg xmlns="http://www.w3.org/2000/svg" width="40" height="31" viewBox="0 0 40 31" fill="none"><path id="Vector" d="M13.0459 15.8072C13.0459 16.6244 12.3963 17.2463 11.573 17.2463C10.9571 17.2463 10.5015 16.898 10.5015 16.2423C10.5015 15.4251 11.1379 14.7694 11.9551 14.7694C12.5783 14.7694 13.0459 15.1515 13.0459 15.8072ZM5.96115 12.5601H5.64656C5.54652 12.5601 5.44528 12.6276 5.43202 12.7409L5.14395 14.5296L5.69357 14.5091C6.43001 14.5091 6.99891 14.409 7.1327 13.5581C7.28698 12.6602 6.71808 12.5601 5.96115 12.5601ZM24.9784 12.5601H24.6771C24.5566 12.5601 24.4758 12.6276 24.4626 12.7409L24.1817 14.5296L24.7169 14.5091C25.5871 14.5091 26.1898 14.3078 26.1898 13.3038C26.1825 12.5939 25.5485 12.5601 24.9784 12.5601ZM39.1407 3.8747V27.4456C39.1404 28.2981 38.8016 29.1155 38.1989 29.7183C37.5961 30.3211 36.7786 30.6598 35.9262 30.6602H3.78437C2.93192 30.6598 2.11447 30.3211 1.5117 29.7183C0.90892 29.1155 0.570144 28.2981 0.569824 27.4456V3.8747C0.570144 3.02225 0.90892 2.2048 1.5117 1.60203C2.11447 0.999253 2.93192 0.660476 3.78437 0.660156H35.9262C36.7786 0.660476 37.5961 0.999253 38.1989 1.60203C38.8016 2.2048 39.1404 3.02225 39.1407 3.8747ZM9.16243 12.941C9.16243 11.5344 8.07766 11.0655 6.83861 11.0655H4.16042C4.07391 11.0662 3.99064 11.0986 3.92643 11.1566C3.86223 11.2146 3.82154 11.2941 3.81209 11.3801L2.71406 18.2166C2.69357 18.3504 2.79481 18.4842 2.9286 18.4842H4.2014C4.3822 18.4842 4.54974 18.2901 4.57023 18.1021L4.87155 16.3207C4.93905 15.8385 5.75504 16.0061 6.07686 16.0061C7.99208 16.0061 9.16364 14.8683 9.16364 12.9398L9.16243 12.941ZM14.8008 13.5304H13.528C13.2737 13.5304 13.2605 13.8992 13.2472 14.08C12.8591 13.5111 12.2962 13.4099 11.6598 13.4099C10.0194 13.4099 8.76709 14.849 8.76709 16.4364C8.76709 17.7417 9.58429 18.5927 10.8896 18.5927C11.4923 18.5927 12.242 18.2648 12.6638 17.796C12.6249 17.9314 12.6022 18.071 12.5963 18.2118C12.5963 18.3661 12.6638 18.4794 12.8109 18.4794H13.9632C14.144 18.4794 14.2982 18.2853 14.332 18.0973L15.0154 13.7919C15.0359 13.6642 14.9346 13.5304 14.8008 13.5304ZM17.5128 20.086L21.7783 13.8847C21.8121 13.851 21.8121 13.8172 21.8121 13.7714C21.8121 13.6581 21.7121 13.5376 21.5975 13.5376H20.3115C20.2516 13.54 20.1932 13.5564 20.1409 13.5855C20.0885 13.6146 20.0437 13.6556 20.0102 13.7052L18.236 16.317L17.4995 13.8064C17.4718 13.73 17.4219 13.6637 17.3562 13.616C17.2904 13.5683 17.2119 13.5414 17.1307 13.5388H15.8784C15.7639 13.5388 15.6638 13.6594 15.6638 13.7727C15.6638 13.8534 16.9692 17.5766 17.0837 17.9309C16.9029 18.1853 15.7108 19.8462 15.7108 20.0475C15.7108 20.168 15.8109 20.262 15.9254 20.262H17.2114C17.2716 20.258 17.33 20.2403 17.3823 20.2103C17.4345 20.1802 17.4792 20.1385 17.5128 20.0884V20.086ZM28.1797 12.941C28.1797 11.5344 27.0949 11.0655 25.8559 11.0655H23.197C23.1079 11.0648 23.0216 11.0962 22.9539 11.154C22.8861 11.2118 22.8415 11.2921 22.8282 11.3801L21.7434 18.2106C21.7301 18.3444 21.8302 18.4782 21.9579 18.4782H23.3308C23.4646 18.4782 23.5646 18.3781 23.5984 18.2636L23.8997 16.3219C23.9672 15.8397 24.7844 16.0073 25.105 16.0073C27.0069 16.0073 28.1797 14.8695 28.1797 12.941ZM33.8169 13.5304H32.5441C32.2898 13.5304 32.2765 13.8992 32.256 14.08C31.8872 13.5111 31.3183 13.4099 30.6687 13.4099C29.0282 13.4099 27.7759 14.849 27.7759 16.4364C27.7759 17.7417 28.5931 18.5927 29.8985 18.5927C30.5216 18.5927 31.2713 18.2648 31.6727 17.796C31.6522 17.896 31.6052 18.1105 31.6052 18.2118C31.6052 18.3661 31.6727 18.4794 31.8197 18.4794H32.978C33.1588 18.4794 33.3131 18.2853 33.3468 18.0973L34.0303 13.7919C34.0507 13.6642 33.9507 13.5304 33.8169 13.5304ZM36.9977 11.3006C36.9977 11.1668 36.8977 11.0667 36.7832 11.0667H35.5441C35.4441 11.0667 35.3428 11.1475 35.3296 11.2475L34.2448 18.2118L34.2255 18.2455C34.2255 18.3661 34.3256 18.4794 34.4593 18.4794H35.5646C35.7321 18.4794 35.8997 18.2853 35.9129 18.0973L36.9977 11.3211V11.3006ZM30.9712 14.7694C30.154 14.7694 29.5176 15.4191 29.5176 16.2423C29.5176 16.892 29.9865 17.2463 30.6024 17.2463C31.4063 17.2463 32.056 16.6304 32.056 15.8072C32.0632 15.1515 31.5943 14.7694 30.9712 14.7694Z" fill="black"></path></svg>