<svg xmlns="http://www.w3.org/2000/svg" width="41" height="31" viewBox="0 0 41 31" fill="none"><g id="Group 50"><path id="Vector" d="M36.3909 30.6602H3.89087C1.81587 30.6602 0.140869 28.9852 0.140869 26.9102V4.41016C0.140869 2.33516 1.81587 0.660156 3.89087 0.660156H36.3909C38.4659 0.660156 40.1409 2.33516 40.1409 4.41016V26.9102C40.1409 28.9852 38.4659 30.6602 36.3909 30.6602ZM3.89087 3.16016C3.19087 3.16016 2.64087 3.71016 2.64087 4.41016V26.9102C2.64087 27.6102 3.19087 28.1602 3.89087 28.1602H36.3909C37.0909 28.1602 37.6409 27.6102 37.6409 26.9102V4.41016C37.6409 3.71016 37.0909 3.16016 36.3909 3.16016H3.89087Z" fill="black"></path><path id="Vector_2" d="M33.1159 11.7354H31.2409C30.6659 11.7354 30.2409 11.9104 29.9659 12.4854L26.3659 20.6855H28.9159C28.9159 20.6855 29.3659 19.5855 29.4409 19.3355H32.5659C32.6659 19.6355 32.8659 20.6604 32.8659 20.6604H35.1409L33.1159 11.7604V11.7354ZM30.1409 17.4854C30.3659 16.9604 31.1159 14.9854 31.1159 14.9854C31.1159 15.0354 31.3409 14.4604 31.4159 14.1604L31.5909 14.9604L32.1659 17.5605H30.1409V17.5104V17.4854ZM26.5409 17.7354C26.5409 19.5855 24.8659 20.8105 22.2909 20.8105C21.1909 20.8105 20.1409 20.5855 19.5659 20.3355L19.9159 18.3105L20.2159 18.4354C21.0159 18.7854 21.5409 18.9105 22.4909 18.9105C23.1909 18.9105 23.9409 18.6354 23.9409 18.0354C23.9409 17.6354 23.6409 17.3855 22.6659 16.9355C21.7409 16.4855 20.5159 15.7855 20.5159 14.5355C20.5159 12.7855 22.2159 11.5854 24.6409 11.5854C25.5659 11.5854 26.3409 11.7605 26.8409 11.9855L26.4909 13.9105L26.3159 13.7354C25.8659 13.5604 25.3159 13.3855 24.4659 13.3855C23.5409 13.4355 23.1159 13.8354 23.1159 14.1854C23.1159 14.5854 23.6409 14.8854 24.4659 15.2854C25.8659 15.9354 26.5159 16.6854 26.5159 17.7354H26.5409ZM5.14087 11.8104L5.19087 11.6354H8.96587C9.49087 11.6354 9.89087 11.8104 10.0159 12.3854L10.8409 16.3355C10.0159 14.2355 8.06587 12.5104 5.14087 11.8104Z" fill="black"></path><path id="Vector_3" d="M16.1409 11.7355L12.3159 20.6355H9.71587L7.51587 13.1855C9.09087 14.1855 10.4159 15.7855 10.8909 16.8605L11.1659 17.7855L13.5409 11.6855H16.1409V11.7355ZM17.1659 11.6855H19.5659L18.0409 20.6355H15.6409L17.1659 11.6855Z" fill="black"></path></g></svg>