<svg xmlns="http://www.w3.org/2000/svg" width="28" height="29" viewBox="0 0 28 29" fill="none"><path d="M23.3334 14.6602V26.3268H4.66675V14.6602" stroke="#003AAA" stroke-width="2" stroke-linecap="round" stroke-linejoin="round"></path><path d="M25.6666 8.82666H2.33325V14.66H25.6666V8.82666Z" stroke="#003AAA" stroke-width="2" stroke-linecap="round" stroke-linejoin="round"></path><path d="M14 26.3267V8.82666" stroke="#003AAA" stroke-width="2" stroke-linecap="round" stroke-linejoin="round"></path><path d="M13.9999 8.82699H8.74992C7.97637 8.82699 7.2345 8.5197 6.68752 7.97271C6.14054 7.42573 5.83325 6.68387 5.83325 5.91032C5.83325 5.13677 6.14054 4.39491 6.68752 3.84792C7.2345 3.30094 7.97637 2.99365 8.74992 2.99365C12.8333 2.99365 13.9999 8.82699 13.9999 8.82699Z" stroke="#003AAA" stroke-width="2" stroke-linecap="round" stroke-linejoin="round"></path><path d="M14 8.82699H19.25C20.0235 8.82699 20.7654 8.5197 21.3124 7.97271C21.8594 7.42573 22.1667 6.68387 22.1667 5.91032C22.1667 5.13677 21.8594 4.39491 21.3124 3.84792C20.7654 3.30094 20.0235 2.99365 19.25 2.99365C15.1667 2.99365 14 8.82699 14 8.82699Z" stroke="#003AAA" stroke-width="2" stroke-linecap="round" stroke-linejoin="round"></path></svg>