<svg xmlns="http://www.w3.org/2000/svg" width="28" height="29" viewBox="0 0 28 29" fill="none"><path d="M18.6667 4.16016H1.16675V19.3268H18.6667V4.16016Z" stroke="#003AAA" stroke-width="2" stroke-linecap="round" stroke-linejoin="round"></path><path d="M18.6667 9.99365H23.3334L26.8334 13.4937V19.327H18.6667V9.99365Z" stroke="#003AAA" stroke-width="2" stroke-linecap="round" stroke-linejoin="round"></path><path d="M6.41667 25.16C8.0275 25.16 9.33333 23.8542 9.33333 22.2433C9.33333 20.6325 8.0275 19.3267 6.41667 19.3267C4.80584 19.3267 3.5 20.6325 3.5 22.2433C3.5 23.8542 4.80584 25.16 6.41667 25.16Z" stroke="#003AAA" stroke-width="2" stroke-linecap="round" stroke-linejoin="round"></path><path d="M21.5834 25.16C23.1942 25.16 24.5001 23.8542 24.5001 22.2433C24.5001 20.6325 23.1942 19.3267 21.5834 19.3267C19.9726 19.3267 18.6667 20.6325 18.6667 22.2433C18.6667 23.8542 19.9726 25.16 21.5834 25.16Z" stroke="#003AAA" stroke-width="2" stroke-linecap="round" stroke-linejoin="round"></path></svg>