<svg xmlns="http://www.w3.org/2000/svg" width="48" height="48" viewBox="0 0 48 48" fill="none"><path d="M6.86616 0H3.44634C1.54603 0 0 1.54603 0 3.44634V35.3438C0 35.3871 0.00253125 35.4302 0.0065625 35.4732C0.00796875 35.489 0.0103125 35.5043 0.0121875 35.5199C0.0155625 35.5464 0.0194062 35.5728 0.0242813 35.599C0.0276562 35.6176 0.0314062 35.636 0.0355313 35.6543C0.0406875 35.6769 0.0465938 35.6993 0.052875 35.7217C0.0582188 35.7408 0.0632813 35.76 0.069375 35.7788C0.0704063 35.782 0.0710625 35.7852 0.0720937 35.7884L3.82209 47.0384C4.01363 47.6127 4.55091 48 5.15625 48C5.76159 48 6.29888 47.6127 6.49031 47.0384L10.2403 35.7884C10.2413 35.7852 10.242 35.782 10.243 35.7788C10.2491 35.76 10.2543 35.7409 10.2595 35.7217C10.2658 35.6992 10.2717 35.6768 10.2769 35.6543C10.281 35.636 10.2847 35.6176 10.2881 35.599C10.293 35.5728 10.2968 35.5464 10.3002 35.5199C10.3022 35.5043 10.3044 35.4889 10.3058 35.4732C10.3098 35.4302 10.3124 35.3871 10.3124 35.3438V3.44634C10.3125 1.54603 8.76647 0 6.86616 0ZM2.8125 33.9375V8.4375H7.5V33.9375H2.8125ZM3.44634 2.8125H6.86616C7.21566 2.8125 7.5 3.09684 7.5 3.44634V5.625H2.8125V3.44634C2.8125 3.09684 3.09684 2.8125 3.44634 2.8125ZM5.15625 42.1468L3.35728 36.75H6.95513L5.15625 42.1468Z" fill="#003AAA"></path><path d="M27.0951 0H15.2795C14.5029 0 13.8733 0.629625 13.8733 1.40625V46.5938C13.8733 47.3704 14.5029 48 15.2795 48H27.095C27.8717 48 28.5013 47.3704 28.5013 46.5938V1.40625C28.5014 0.629625 27.8718 0 27.0951 0ZM25.6889 45.1875H16.6859V42.1875H18.8436C19.6203 42.1875 20.2499 41.5579 20.2499 40.7812C20.2499 40.0046 19.6203 39.375 18.8436 39.375H16.6859V36.5625H18.8436C19.6203 36.5625 20.2499 35.9329 20.2499 35.1562C20.2499 34.3796 19.6203 33.75 18.8436 33.75H16.6859V30.9375H18.8436C19.6203 30.9375 20.2499 30.3079 20.2499 29.5312C20.2499 28.7546 19.6203 28.125 18.8436 28.125H16.6859V25.3125H18.8436C19.6203 25.3125 20.2499 24.6829 20.2499 23.9062C20.2499 23.1296 19.6203 22.5 18.8436 22.5H16.6859V19.6875H18.8436C19.6203 19.6875 20.2499 19.0579 20.2499 18.2812C20.2499 17.5046 19.6203 16.875 18.8436 16.875H16.6859V14.0625H18.8436C19.6203 14.0625 20.2499 13.4329 20.2499 12.6562C20.2499 11.8796 19.6203 11.25 18.8436 11.25H16.6859V8.4375H18.8436C19.6203 8.4375 20.2499 7.80788 20.2499 7.03125C20.2499 6.25462 19.6203 5.625 18.8436 5.625H16.6859V2.8125H25.6889V45.1875Z" fill="#003AAA"></path><path d="M43.0785 5.625H42.3745V3.44625C42.3745 1.54594 40.8286 0 38.9283 0H35.5083C33.6079 0 32.062 1.54594 32.062 3.44625V38.3209C32.062 40.7158 33.6354 42.7318 35.812 43.3458V46.5938C35.812 47.3704 36.4416 48 37.2183 48C37.9949 48 38.6245 47.3704 38.6245 46.5938V43.3399C40.7853 42.7178 42.3745 40.7005 42.3745 38.3176V28.7799C42.3745 28.7778 42.3748 28.7757 42.3748 28.7736C42.3748 28.7714 42.3745 28.7693 42.3745 28.7672V8.4375H43.0785C44.2414 8.4375 45.1874 9.38353 45.1874 10.5464V25.3474C45.1874 26.124 45.817 26.7536 46.5936 26.7536C47.3703 26.7536 47.9999 26.124 47.9999 25.3474V10.5464C47.9999 7.83272 45.7922 5.625 43.0785 5.625ZM35.5084 2.8125H38.9284C39.2779 2.8125 39.5621 3.09675 39.5621 3.44625V5.625H34.8746V3.44625C34.8746 3.09675 35.1589 2.8125 35.5084 2.8125ZM37.2275 40.7264C37.1872 40.7264 37.147 40.7257 37.1075 40.7242C35.8763 40.6737 34.8746 39.5956 34.8746 38.3208V30.1798H39.5621V38.3176C39.5621 39.6421 38.5144 40.7227 37.2275 40.7264ZM39.5621 27.3673H34.8746V8.4375H39.5621V27.3673Z" fill="#003AAA"></path></svg>