<svg xmlns="http://www.w3.org/2000/svg" width="48" height="48" viewBox="0 0 48 48" fill="none"><path d="M42.3703 11.2471V0H32.4764V8.43531H39.5585V11.2471H33.9408V16.8706H14.0593V11.2471H8.44161V8.43531H15.5237V0H5.62984V11.2471H0.012207V48H47.988V11.2471H42.3703ZM35.2882 5.62354V2.81177H39.5585V5.62354H35.2882ZM8.44161 2.81177H12.7119V5.62354H8.44161V2.81177ZM36.7527 14.0588H45.1763V16.8706H36.7527V14.0588ZM33.9409 19.6824V22.4942H14.0711V19.6824H33.9409ZM11.2476 14.0588V16.8706H2.82398V14.0588H11.2476ZM2.82398 45.1882V19.6824H11.2476V45.1882H2.82398ZM21.5691 45.1882V42.1765H26.4428V45.1881H21.5691V45.1882ZM29.2546 45.1882V39.3648H18.7573V45.1881H14.0711V25.3059H33.9409V45.1882H29.2546ZM36.7527 45.1882V19.6824H45.1763V45.1882H36.7527Z" fill="#003AAA"></path><path d="M39.5586 22.4941H42.3704V25.3059H39.5586V22.4941Z" fill="#003AAA"></path><path d="M39.5586 28.1177H42.3704V30.9294H39.5586V28.1177Z" fill="#003AAA"></path><path d="M39.5586 33.7412H42.3704V36.553H39.5586V33.7412Z" fill="#003AAA"></path><path d="M39.5586 39.3647H42.3704V42.1765H39.5586V39.3647Z" fill="#003AAA"></path><path d="M5.62988 22.4941H8.44165V25.3059H5.62988V22.4941Z" fill="#003AAA"></path><path d="M5.62988 28.1177H8.44165V30.9294H5.62988V28.1177Z" fill="#003AAA"></path><path d="M5.62988 33.7412H8.44165V36.553H5.62988V33.7412Z" fill="#003AAA"></path><path d="M5.62988 39.3647H8.44165V42.1765H5.62988V39.3647Z" fill="#003AAA"></path><path d="M16.9766 33.7412H19.7883V36.553H16.9766V33.7412Z" fill="#003AAA"></path><path d="M22.6001 33.7412H25.4119V36.553H22.6001V33.7412Z" fill="#003AAA"></path><path d="M28.2236 33.7412H31.0354V36.553H28.2236V33.7412Z" fill="#003AAA"></path><path d="M16.9766 28.1177H19.7883V30.9294H16.9766V28.1177Z" fill="#003AAA"></path><path d="M22.6001 28.1177H25.4119V30.9294H22.6001V28.1177Z" fill="#003AAA"></path><path d="M28.2236 28.1177H31.0354V30.9294H28.2236V28.1177Z" fill="#003AAA"></path></svg>